HIERARCHY
ROOT Hips
{
	OFFSET 0.637730 -0.097205 -0.630555
	CHANNELS 6 Xposition Yposition Zposition Zrotation Yrotation Xrotation 
	JOINT Spine
	{
		OFFSET -0.000031 8.340403 -2.713993
		CHANNELS 3 Zrotation Yrotation Xrotation
		JOINT Spine1
		{
			OFFSET -0.000002 11.910021 -2.100108
			CHANNELS 3 Zrotation Yrotation Xrotation
			JOINT Spine2
			{
				OFFSET 0.000013 12.047684 -1.054077
				CHANNELS 3 Zrotation Yrotation Xrotation
				JOINT Spine3
				{
					OFFSET 0.000017 12.093716 0.000038
					CHANNELS 3 Zrotation Yrotation Xrotation
					JOINT Neck
					{
						OFFSET -0.000032 15.549073 1.554918
						CHANNELS 3 Zrotation Yrotation Xrotation
						JOINT Neck1
						{
							OFFSET 0.000021 4.687327 0.410064
							CHANNELS 3 Zrotation Yrotation Xrotation
							JOINT Head
							{
								OFFSET 0.000039 4.633812 0.817098
								CHANNELS 3 Zrotation Yrotation Xrotation
								JOINT HeadEnd
								{
									OFFSET 0.000010 9.727772 -0.000012
									CHANNELS 3 Zrotation Yrotation Xrotation
									End Site
									{
										OFFSET 0.000000 0.000000 0.000000
									}
								}
							}
						}
					}
					JOINT RightShoulder
					{
						OFFSET 0.000032 11.106508 6.072606
						CHANNELS 3 Zrotation Yrotation Xrotation
						JOINT RightArm
						{
							OFFSET -19.427927 0.000072 0.000017
							CHANNELS 3 Zrotation Yrotation Xrotation
							JOINT RightForeArm
							{
								OFFSET -29.350727 -0.000008 0.000025
								CHANNELS 3 Zrotation Yrotation Xrotation
								JOINT RightHand
								{
									OFFSET -27.018080 -0.000022 0.000055
									CHANNELS 3 Zrotation Yrotation Xrotation
									JOINT RightHandMiddle1
									{
										OFFSET -9.244012 -0.000011 0.000002
										CHANNELS 3 Zrotation Yrotation Xrotation
										JOINT RightHandMiddle2
										{
											OFFSET -4.870065 -0.000023 -0.000006
											CHANNELS 3 Zrotation Yrotation Xrotation
											JOINT RightHandMiddle3
											{
												OFFSET -3.169075 0.000010 0.000007
												CHANNELS 3 Zrotation Yrotation Xrotation
												JOINT RightHandMiddle4
												{
													OFFSET -1.888341 0.000002 -0.000005
													CHANNELS 3 Zrotation Yrotation Xrotation
													End Site
													{
														OFFSET 0.000000 0.000000 0.000000
													}
												}
											}
										}
									}
									JOINT RightHandRing
									{
										OFFSET -0.250007 -0.250019 -0.956457
										CHANNELS 3 Zrotation Yrotation Xrotation
										JOINT RightHandRing1
										{
											OFFSET -8.140213 0.000031 -0.734586
											CHANNELS 3 Zrotation Yrotation Xrotation
											JOINT RightHandRing2
											{
												OFFSET -4.501565 -0.000019 -0.406242
												CHANNELS 3 Zrotation Yrotation Xrotation
												JOINT RightHandRing3
												{
													OFFSET -3.068849 0.000006 -0.276948
													CHANNELS 3 Zrotation Yrotation Xrotation
													JOINT RightHandRing4
													{
														OFFSET -1.869940 -0.000016 -0.168765
														CHANNELS 3 Zrotation Yrotation Xrotation
														End Site
														{
															OFFSET 0.000000 0.000000 0.000000
														}
													}
												}
											}
										}
										JOINT RightHandPinky
										{
											OFFSET -0.163074 -0.249981 -0.975119
											CHANNELS 3 Zrotation Yrotation Xrotation
											JOINT RightHandPinky1
											{
												OFFSET -6.681453 -0.000011 -1.494106
												CHANNELS 3 Zrotation Yrotation Xrotation
												JOINT RightHandPinky2
												{
													OFFSET -3.580956 -0.000004 -0.800786
													CHANNELS 3 Zrotation Yrotation Xrotation
													JOINT RightHandPinky3
													{
														OFFSET -2.276529 -0.000022 -0.509055
														CHANNELS 3 Zrotation Yrotation Xrotation
														JOINT RightHandPinky4
														{
															OFFSET -1.690356 -0.000013 -0.377976
															CHANNELS 3 Zrotation Yrotation Xrotation
															End Site
															{
																OFFSET 0.000000 0.000000 0.000000
															}
														}
													}
												}
											}
										}
									}
									JOINT RightHandIndex
									{
										OFFSET -0.249989 -0.250010 0.956494
										CHANNELS 3 Zrotation Yrotation Xrotation
										JOINT RightHandIndex1
										{
											OFFSET -8.934074 0.000033 0.806257
											CHANNELS 3 Zrotation Yrotation Xrotation
											JOINT RightHandIndex2
											{
												OFFSET -4.694676 -0.000018 0.423680
												CHANNELS 3 Zrotation Yrotation Xrotation
												JOINT RightHandIndex3
												{
													OFFSET -2.811735 0.000017 0.253714
													CHANNELS 3 Zrotation Yrotation Xrotation
													JOINT RightHandIndex4
													{
														OFFSET -1.709906 -0.000016 0.154273
														CHANNELS 3 Zrotation Yrotation Xrotation
														End Site
														{
															OFFSET 0.000000 0.000000 0.000000
														}
													}
												}
											}
										}
										JOINT RightHandThumb1
										{
											OFFSET -0.162995 -0.750004 0.975093
											CHANNELS 3 Zrotation Yrotation Xrotation
											JOINT RightHandThumb2
											{
												OFFSET -5.411695 0.835525 2.244688
												CHANNELS 3 Zrotation Yrotation Xrotation
												JOINT RightHandThumb3
												{
													OFFSET -3.567152 0.550735 1.479629
													CHANNELS 3 Zrotation Yrotation Xrotation
													JOINT RightHandThumb4
													{
														OFFSET -2.150541 0.332037 0.892052
														CHANNELS 3 Zrotation Yrotation Xrotation
														End Site
														{
															OFFSET 0.000000 0.000000 0.000000
														}
													}
												}
											}
										}
									}
								}
							}
						}
					}
					JOINT LeftShoulder
					{
						OFFSET 0.000035 11.106476 6.072644
						CHANNELS 3 Zrotation Yrotation Xrotation
						JOINT LeftArm
						{
							OFFSET 19.427888 -0.000001 -0.000011
							CHANNELS 3 Zrotation Yrotation Xrotation
							JOINT LeftForeArm
							{
								OFFSET 29.350728 0.000005 0.000047
								CHANNELS 3 Zrotation Yrotation Xrotation
								JOINT LeftHand
								{
									OFFSET 27.018081 -0.000042 -0.000015
									CHANNELS 3 Zrotation Yrotation Xrotation
									JOINT LeftHandMiddle1
									{
										OFFSET 9.402648 0.000031 -0.000019
										CHANNELS 3 Zrotation Yrotation Xrotation
										JOINT LeftHandMiddle2
										{
											OFFSET 4.950121 -0.000005 -0.000011
											CHANNELS 3 Zrotation Yrotation Xrotation
											JOINT LeftHandMiddle3
											{
												OFFSET 3.211958 0.000001 -0.000018
												CHANNELS 3 Zrotation Yrotation Xrotation
												JOINT LeftHandMiddle4
												{
													OFFSET 1.927629 0.000013 0.000001
													CHANNELS 3 Zrotation Yrotation Xrotation
													End Site
													{
														OFFSET 0.000000 0.000000 0.000000
													}
												}
											}
										}
									}
									JOINT LeftHandRing
									{
										OFFSET 0.249973 -0.250020 -0.906136
										CHANNELS 3 Zrotation Yrotation Xrotation
										JOINT LeftHandRing1
										{
											OFFSET 8.286066 -0.000019 -0.747800
											CHANNELS 3 Zrotation Yrotation Xrotation
											JOINT LeftHandRing2
											{
												OFFSET 4.585526 0.000022 -0.413795
												CHANNELS 3 Zrotation Yrotation Xrotation
												JOINT LeftHandRing3
												{
													OFFSET 3.124465 0.000006 -0.281959
													CHANNELS 3 Zrotation Yrotation Xrotation
													JOINT LeftHandRing4
													{
														OFFSET 1.908772 -0.000005 -0.172253
														CHANNELS 3 Zrotation Yrotation Xrotation
														End Site
														{
															OFFSET 0.000000 0.000000 0.000000
														}
													}
												}
											}
										}
										JOINT LeftHandPinky
										{
											OFFSET 0.167545 -0.249986 -0.924959
											CHANNELS 3 Zrotation Yrotation Xrotation
											JOINT LeftHandPinky1
											{
												OFFSET 6.823478 0.000008 -1.525913
												CHANNELS 3 Zrotation Yrotation Xrotation
												JOINT LeftHandPinky2
												{
													OFFSET 3.642804 -0.000014 -0.814587
													CHANNELS 3 Zrotation Yrotation Xrotation
													JOINT LeftHandPinky3
													{
														OFFSET 2.333129 0.000006 -0.521724
														CHANNELS 3 Zrotation Yrotation Xrotation
														JOINT LeftHandPinky4
														{
															OFFSET 1.725451 0.000005 -0.385874
															CHANNELS 3 Zrotation Yrotation Xrotation
															End Site
															{
																OFFSET 0.000000 0.000000 0.000000
															}
														}
													}
												}
											}
										}
									}
									JOINT LeftHandIndex
									{
										OFFSET 0.250014 -0.250000 0.906143
										CHANNELS 3 Zrotation Yrotation Xrotation
										JOINT LeftHandIndex1
										{
											OFFSET 9.087968 -0.000022 0.820148
											CHANNELS 3 Zrotation Yrotation Xrotation
											JOINT LeftHandIndex2
											{
												OFFSET 4.776526 -0.000021 0.431046
												CHANNELS 3 Zrotation Yrotation Xrotation
												JOINT LeftHandIndex3
												{
													OFFSET 2.865144 0.000017 0.258589
													CHANNELS 3 Zrotation Yrotation Xrotation
													JOINT LeftHandIndex4
													{
														OFFSET 1.745460 -0.000002 0.157484
														CHANNELS 3 Zrotation Yrotation Xrotation
														End Site
														{
															OFFSET 0.000000 0.000000 0.000000
														}
													}
												}
											}
										}
										JOINT LeftHandThumb1
										{
											OFFSET 0.167569 -0.749991 0.924965
											CHANNELS 3 Zrotation Yrotation Xrotation
											JOINT LeftHandThumb2
											{
												OFFSET 5.551496 0.857118 2.302694
												CHANNELS 3 Zrotation Yrotation Xrotation
												JOINT LeftHandThumb3
												{
													OFFSET 3.625646 0.559729 1.503902
													CHANNELS 3 Zrotation Yrotation Xrotation
													JOINT LeftHandThumb4
													{
														OFFSET 2.195244 0.338911 0.910544
														CHANNELS 3 Zrotation Yrotation Xrotation
														End Site
														{
															OFFSET 0.000000 0.000000 0.000000
														}
													}
												}
											}
										}
									}
								}
							}
						}
					}
				}
			}
		}
	}
	JOINT RightUpLeg
	{
		OFFSET -8.786541 0.000013 -0.000007
		CHANNELS 3 Zrotation Yrotation Xrotation
		JOINT RightLeg
		{
			OFFSET -0.000080 -42.170404 -0.000075
			CHANNELS 3 Zrotation Yrotation Xrotation
			JOINT RightFoot
			{
				OFFSET 0.000015 -45.949150 0.000035
				CHANNELS 3 Zrotation Yrotation Xrotation
				JOINT RightForeFoot
				{
					OFFSET 0.000005 -4.685841 -0.000023
					CHANNELS 3 Zrotation Yrotation Xrotation
					JOINT RightToeBase
					{
						OFFSET -0.000042 0.000002 18.351141
						CHANNELS 3 Zrotation Yrotation Xrotation
						JOINT RightToeBaseEnd
						{
							OFFSET 0.000044 0.000038 6.416941
							CHANNELS 3 Zrotation Yrotation Xrotation
							End Site
							{
								OFFSET 0.000000 0.000000 0.000000
							}
						}
					}
				}
			}
		}
	}
	JOINT LeftUpLeg
	{
		OFFSET 8.786536 -0.000049 -0.000053
		CHANNELS 3 Zrotation Yrotation Xrotation
		JOINT LeftLeg
		{
			OFFSET 0.000015 -42.170452 0.000013
			CHANNELS 3 Zrotation Yrotation Xrotation
			JOINT LeftFoot
			{
				OFFSET -0.000002 -45.949169 0.000028
				CHANNELS 3 Zrotation Yrotation Xrotation
				JOINT LeftForeFoot
				{
					OFFSET 0.000049 -4.685817 0.000067
					CHANNELS 3 Zrotation Yrotation Xrotation
					JOINT LeftToeBase
					{
						OFFSET 0.000031 -0.000046 18.351047
						CHANNELS 3 Zrotation Yrotation Xrotation
						JOINT LeftToeBaseEnd
						{
							OFFSET -0.000007 0.000013 7.522023
							CHANNELS 3 Zrotation Yrotation Xrotation
							End Site
							{
								OFFSET 0.000000 0.000000 0.000000
							}
						}
					}
				}
			}
		}
	}
}
MOTION
Frames: 4
Frame Time: 0.066667
0.637730 -0.097205 -0.630555 -7.192853 15.757109 1.986541 9.226690 -1.307595 0.651395 -0.131416 -0.136120 -2.814768 -0.189437 0.411132 -1.608626 1.079549 0.736307 7.921970 3.825050 0.494471 7.563597 -8.646916 4.687467 -0.186934 -5.431407 1.264839 1.456790 -0.000134 0.000292 0.001573 7.876716 -12.255717 -1.669777 69.409973 13.693509 17.636997 -179.998428 55.367062 -170.117126 -29.403952 -0.212781 0.001453 32.785480 -8.829125 -0.002561 46.382271 -0.000070 0.001302 22.690361 -0.002501 0.001424 0.001692 -0.001839 0.001722 -2.128816 -1.899398 -2.755053 37.280273 -4.860611 -3.121072 55.023457 2.231779 -4.240520 19.288671 0.291166 -1.706538 0.001471 0.001421 0.000697 -2.303004 -5.299451 -4.206328 25.344397 4.636084 -5.595951 53.041183 5.158083 -10.296757 38.427872 2.773638 -7.984417 -0.000262 -0.000826 -0.000446 1.358650 7.554464 0.092385 29.487167 -15.786542 2.686919 40.604168 -1.236528 3.369559 25.656897 -0.506347 2.238780 0.000998 0.000894 0.000456 10.765679 -4.281533 58.011879 6.614917 3.869411 3.295392 6.417877 -4.235884 1.800007 0.000197 -0.000637 -0.001480 -11.976134 7.711725 -1.623852 -61.717224 -4.202466 11.796878 179.998672 -48.811611 -159.477875 20.556814 12.483498 -0.024476 -24.093681 4.709581 0.002665 -44.983047 0.001137 0.000869 -22.515589 0.000804 -0.000081 -0.001589 0.000667 0.001549 -0.529238 1.473178 -10.402500 -18.661669 4.204277 -1.646345 -52.439480 -2.018933 -4.103919 -12.241438 -0.120531 -1.097072 0.000263 0.000990 0.000366 -0.324092 1.323961 -5.800865 -5.601780 7.047665 -1.230118 -40.730690 -3.101585 -8.389521 -28.581415 -1.559266 -6.139807 0.001275 -0.003062 0.000064 -0.114538 -6.463344 -3.501183 -24.495443 12.221556 2.270944 -34.618355 0.907276 2.942899 -17.901493 0.246887 1.590514 -0.002199 0.001335 -0.000599 -14.252902 7.824496 51.078526 -2.835276 5.922282 0.297495 0.000000 0.000000 0.000000 0.001042 0.001393 -0.000871 6.023781 -6.432892 1.442449 0.000038 0.002384 2.124646 0.000000 0.000000 -0.000000 0.000000 -0.000000 0.000000 -0.000000 -0.000000 0.000000 0.000000 0.000000 0.000000 14.022655 -7.277292 0.756808 -0.000730 0.002447 1.539944 -0.000000 -0.000000 -0.000000 -0.000000 -0.000000 -0.000000 -0.000000 0.000000 0.000000 0.000000 0.000000 0.000000 
0.700133 -0.091523 -0.684414 -7.188646 15.708001 2.027099 9.231152 -1.310220 0.620817 -0.125086 -0.139650 -2.819033 -0.177420 0.349709 -1.604790 1.099060 0.723793 7.904129 3.864916 0.622727 7.438711 -8.562364 4.946190 -0.237915 -5.403480 1.274286 1.469762 0.000017 -0.000213 0.001611 7.877157 -12.226940 -1.665335 69.366798 13.809443 18.038471 -179.998520 55.563744 -170.694443 -28.710964 -0.496041 0.001597 33.258812 -8.746800 -0.001148 45.881035 0.000089 0.000959 22.504196 -0.002406 0.001756 0.001369 -0.001200 0.001569 -2.078793 -1.982950 -2.663969 38.302742 -4.596475 -3.193484 55.207596 2.238776 -4.250860 19.153601 0.287178 -1.694770 0.001499 0.001468 0.000326 -2.271015 -5.378160 -4.137142 26.255226 5.172257 -5.797608 52.946217 5.151184 -10.283036 38.455761 2.779874 -7.989793 -0.000497 -0.000883 -0.000106 1.392376 7.568174 0.158360 29.449234 -15.614638 2.680649 40.025574 -1.202802 3.330308 25.282179 -0.492040 2.207908 0.000718 0.000750 0.000523 10.964715 -4.817208 58.406181 7.189575 3.732323 3.472172 6.328919 -4.169217 1.781067 0.000213 -0.000713 -0.001408 -11.913753 7.634096 -1.599016 -61.869720 -4.710023 12.253459 179.998581 -49.125397 -160.284485 20.459553 12.640127 -0.026911 -23.824518 4.782036 0.002943 -44.561199 0.001341 0.000259 -22.162386 0.000884 -0.000212 -0.001316 0.000500 0.001454 -0.532012 1.491810 -10.347425 -18.559933 4.133855 -1.637070 -52.147774 -1.995031 -4.087327 -11.977778 -0.115198 -1.073490 0.000091 0.000941 0.000603 -0.350213 1.318005 -5.804741 -5.519627 7.031991 -1.212178 -40.611107 -3.082542 -8.368066 -28.426378 -1.540393 -6.110181 0.001248 -0.003046 -0.000128 -0.124818 -6.453800 -3.494905 -24.515144 12.171361 2.269302 -34.350235 0.889142 2.921706 -17.729794 0.241652 1.575821 -0.002317 0.001003 -0.000589 -14.282849 7.771264 51.004963 -2.767056 5.830525 0.278741 0.000000 0.000000 0.000000 0.001273 0.001327 -0.000744 5.964063 -6.373966 1.408143 -0.000259 0.002282 2.162562 0.000000 0.000000 -0.000000 0.000000 -0.000000 0.000000 -0.000000 -0.000000 0.000000 0.000000 0.000000 0.000000 13.979541 -7.295218 0.768631 -0.000619 0.002322 1.488482 -0.000000 -0.000000 -0.000000 0.000000 -0.000000 -0.000000 -0.000000 0.000000 0.000000 0.000000 0.000000 0.000000 
0.758978 -0.086355 -0.724208 -7.187145 15.669802 2.061124 9.232872 -1.313177 0.590344 -0.119868 -0.142997 -2.823214 -0.166382 0.292194 -1.600633 1.117585 0.712061 7.887983 3.901898 0.732723 7.315218 -8.485994 5.172774 -0.282292 -5.378036 1.282352 1.483342 0.000159 -0.000664 0.001652 7.883710 -12.202693 -1.662781 69.337425 13.889872 18.348520 -179.998627 55.742615 -171.283218 -28.159927 -0.754406 0.001723 33.589642 -8.683451 0.000029 45.460945 0.000230 0.000657 22.369452 -0.002307 0.002029 0.001095 -0.000666 0.001434 -2.031864 -2.057403 -2.595901 39.121864 -4.380593 -3.250837 55.454952 2.251825 -4.264311 19.058960 0.284453 -1.686490 0.001519 0.001509 0.000013 -2.244864 -5.444738 -4.074523 27.039612 5.611584 -5.969973 52.935581 5.159999 -10.281068 38.518665 2.790943 -8.001328 -0.000690 -0.000934 0.000189 1.422503 7.579074 0.227422 29.307186 -15.437960 2.666775 39.450550 -1.169926 3.290852 24.918261 -0.478319 2.177863 0.000499 0.000628 0.000590 11.168095 -5.318530 58.739010 7.662679 3.647947 3.623635 6.171484 -4.059392 1.741767 0.000214 -0.000778 -0.001323 -11.857910 7.563584 -1.576490 -62.016838 -5.165661 12.646276 179.998474 -49.407509 -161.097961 20.360916 12.816839 -0.028465 -23.402020 4.882780 0.003081 -44.081848 0.001515 -0.000260 -21.770531 0.000976 -0.000317 -0.001079 0.000345 0.001364 -0.535511 1.511365 -10.296106 -18.294640 4.089176 -1.613935 -51.807255 -1.968596 -4.067956 -11.682109 -0.109626 -1.047078 -0.000049 0.000900 0.000807 -0.378984 1.312790 -5.822723 -5.331986 7.068108 -1.171112 -40.449913 -3.058176 -8.339630 -28.227043 -1.518183 -6.071659 0.001231 -0.003013 -0.000291 -0.132570 -6.443238 -3.470335 -24.387011 12.093460 2.255526 -33.987980 0.867914 2.893549 -17.514263 0.235642 1.557336 -0.002400 0.000721 -0.000590 -14.331964 7.692548 50.887184 -2.709600 5.718062 0.267404 0.000000 0.000000 0.000000 0.001480 0.001251 -0.000643 5.911766 -6.325503 1.376276 -0.000486 0.002174 2.200913 0.000000 0.000000 -0.000000 0.000000 -0.000000 0.000000 -0.000000 -0.000000 0.000000 0.000000 0.000000 0.000000 13.938841 -7.312958 0.781552 -0.000511 0.002213 1.443566 -0.000000 -0.000000 -0.000000 0.000000 -0.000000 -0.000000 -0.000000 0.000000 0.000000 0.000000 0.000000 0.000000 
0.814257 -0.081699 -0.749939 -7.188348 15.642510 2.088628 9.231853 -1.316466 0.559976 -0.115763 -0.146162 -2.827313 -0.156321 0.238586 -1.596154 1.135122 0.701111 7.873538 3.935996 0.824461 7.193091 -8.417822 5.367240 -0.320035 -5.355078 1.289038 1.497530 0.000290 -0.001058 0.001697 7.896379 -12.182975 -1.662113 69.321915 13.934818 18.567276 -179.998764 55.903759 -171.883484 -27.751011 -0.987853 0.001845 33.778721 -8.639348 0.000970 45.122284 0.000351 0.000398 22.286148 -0.002203 0.002244 0.000872 -0.000237 0.001316 -1.988032 -2.122755 -2.550842 39.738190 -4.213652 -3.293622 55.765518 2.270884 -4.280812 19.004740 0.282992 -1.681706 0.001533 0.001542 -0.000242 -2.224555 -5.499190 -4.018466 27.696802 5.954370 -6.113120 53.009518 5.184574 -10.290901 38.616604 2.806843 -8.019007 -0.000839 -0.000978 0.000439 1.449032 7.587167 0.299571 29.061310 -15.256159 2.645177 38.878983 -1.137898 3.251196 24.565119 -0.465184 2.148652 0.000344 0.000526 0.000658 11.375808 -5.785443 59.010059 8.034347 3.616438 3.749905 5.945577 -3.906337 1.682077 0.000201 -0.000833 -0.001224 -11.808609 7.500188 -1.556273 -62.158497 -5.569253 12.974754 179.998413 -49.657795 -161.918350 20.260868 13.013644 -0.029108 -22.825975 5.011598 0.003082 -43.544762 0.001661 -0.000689 -21.339901 0.001079 -0.000394 -0.000879 0.000203 0.001280 -0.539736 1.531845 -10.248549 -17.866024 4.069847 -1.576889 -51.417824 -1.939592 -4.045740 -11.354383 -0.103811 -1.017825 -0.000155 0.000867 0.000977 -0.410404 1.308314 -5.854807 -5.038846 7.155787 -1.106913 -40.247124 -3.028470 -8.304160 -27.983368 -1.492620 -6.024182 0.001221 -0.002962 -0.000427 -0.137796 -6.431661 -3.427475 -24.111599 11.987637 2.229574 -33.531418 0.843550 2.858324 -17.254862 0.228851 1.535044 -0.002449 0.000490 -0.000603 -14.400232 7.588341 50.725304 -2.662903 5.584893 0.263491 0.000000 0.000000 0.000000 0.001664 0.001166 -0.000568 5.866889 -6.287516 1.346862 -0.000642 0.002059 2.239700 0.000000 0.000000 -0.000000 0.000000 -0.000000 0.000000 -0.000000 -0.000000 0.000000 0.000000 0.000000 0.000000 13.900551 -7.330518 0.795574 -0.000406 0.002121 1.405195 -0.000000 -0.000000 -0.000000 0.000000 -0.000000 -0.000000 0.000000 0.000000 0.000000 0.000000 0.000000 0.000000 
